<?xml version="1.0" standalone="no"?>
<!DOCTYPE svg PUBLIC "-//W3C//DTD SVG 20010904//EN"
 "http://www.w3.org/TR/2001/REC-SVG-20010904/DTD/svg10.dtd">
<svg version="1.0" xmlns="http://www.w3.org/2000/svg"
 width="780.000000pt" height="524.000000pt" viewBox="0 0 780.000000 524.000000"
 preserveAspectRatio="xMidYMid meet">

<g transform="translate(0.000000,524.000000) scale(0.100000,-0.100000)"
fill="#000000" stroke="none">
<path d="M6657 975 c-15 -36 -27 -70 -27 -75 0 -6 15 -10 34 -10 30 0 40 8 90
69 31 39 56 72 56 75 0 4 -28 6 -63 6 l-63 0 -27 -65z"/>
<path d="M425 844 c-43 -23 -64 -44 -90 -85 -91 -143 -79 -440 21 -558 48 -55
81 -71 152 -71 105 0 183 76 207 201 6 34 5 37 -25 47 -23 9 -32 8 -34 -1 -32
-112 -80 -167 -147 -167 -86 0 -140 69 -160 205 -30 199 42 365 158 365 59 0
95 -26 122 -91 19 -44 26 -50 44 -45 12 3 25 6 30 6 32 0 -30 139 -80 177 -45
35 -149 43 -198 17z"/>
<path d="M1802 843 c-66 -32 -109 -156 -82 -237 21 -64 63 -102 153 -137 113
-43 131 -54 145 -84 31 -67 -1 -146 -67 -166 -85 -25 -163 19 -185 104 -7 27
-15 48 -19 47 -4 0 -19 0 -33 0 -26 0 -26 -1 -19 -47 10 -72 53 -143 100 -170
54 -31 152 -32 204 -2 88 49 125 192 75 290 -23 46 -79 85 -163 114 -104 36
-131 60 -131 115 0 52 13 76 52 96 70 36 158 -2 174 -74 3 -15 7 -32 9 -38 2
-6 17 -9 34 -6 24 3 31 9 31 26 0 70 -48 148 -107 172 -44 19 -131 17 -171 -3z"/>
<path d="M6590 847 c-19 -6 -58 -34 -86 -62 -63 -63 -93 -137 -101 -251 -14
-193 57 -338 190 -389 36 -13 66 -17 130 -13 74 4 91 8 133 36 103 66 149 180
142 351 -4 89 -9 116 -32 166 -55 121 -139 175 -266 174 -41 -1 -91 -6 -110
-12z m173 -121 c72 -30 107 -104 107 -225 0 -125 -33 -201 -102 -237 -41 -21
-116 -14 -156 14 -90 64 -110 281 -37 393 40 62 118 85 188 55z"/>
<path d="M1230 495 l0 -355 35 0 36 0 -2 142 -1 143 105 5 c122 6 148 18 185
90 32 63 32 189 -1 250 -36 69 -68 80 -224 80 l-133 0 0 -355z m286 241 c20
-22 24 -38 24 -92 0 -108 -33 -134 -166 -134 l-74 0 0 131 0 131 96 -4 c91 -4
98 -6 120 -32z"/>
<path d="M2210 495 l0 -355 35 0 35 0 0 355 0 355 -35 0 -35 0 0 -355z"/>
<path d="M2630 495 l0 -355 235 0 235 0 0 60 0 60 -172 2 -173 3 -3 92 -3 92
158 3 158 3 3 57 3 57 -158 3 -158 3 0 75 0 75 168 3 167 2 0 60 0 60 -230 0
-230 0 0 -355z"/>
<path d="M3166 823 c4 -16 53 -174 109 -353 l101 -325 70 -3 69 -3 34 113 c19
62 67 219 108 348 40 129 73 238 73 242 0 4 -29 8 -64 8 -53 0 -66 -3 -70 -17
-3 -10 -35 -121 -71 -248 -37 -126 -70 -233 -74 -237 -4 -5 -26 58 -50 140
-24 81 -57 195 -75 254 l-31 108 -68 0 -67 0 6 -27z"/>
<path d="M3806 503 c-64 -192 -116 -351 -116 -355 0 -5 29 -8 64 -8 l64 0 24
78 24 77 125 3 125 3 25 -78 25 -78 67 -3 c37 -2 67 1 67 6 0 7 -108 320 -227
660 l-15 42 -67 0 -68 0 -117 -347z m223 59 c18 -59 36 -115 38 -124 5 -16 -3
-18 -77 -18 -61 0 -81 3 -78 13 2 6 20 63 39 124 19 62 36 113 39 113 3 0 20
-48 39 -108z"/>
<path d="M4610 495 l0 -355 60 0 60 0 0 135 0 135 93 0 c119 0 157 11 200 59
93 104 70 302 -43 359 -40 20 -58 22 -207 22 l-163 0 0 -355z m316 202 c16
-19 24 -40 24 -67 0 -27 -8 -48 -24 -67 -23 -26 -31 -28 -110 -32 l-86 -3 0
102 0 102 86 -3 c79 -4 87 -6 110 -32z"/>
<path d="M5200 495 l0 -355 235 0 236 0 -3 58 -3 57 -172 3 -173 2 0 95 0 95
155 0 155 0 0 60 0 59 -152 3 -153 3 -3 78 -3 77 171 0 170 0 0 60 0 60 -230
0 -230 0 0 -355z"/>
<path d="M5790 496 l0 -356 60 0 59 0 3 148 3 147 45 -3 c57 -3 82 -29 169
-181 l63 -111 75 0 c41 0 73 4 71 9 -21 55 -122 225 -154 259 l-42 43 39 16
c110 44 148 196 78 310 -38 62 -62 68 -276 71 l-193 4 0 -356z m347 210 c23
-20 28 -32 27 -66 -2 -71 -25 -84 -149 -88 l-105 -4 0 91 0 91 99 0 c91 0 102
-2 128 -24z"/>
<path d="M7110 495 l0 -355 60 0 60 0 2 227 3 227 114 -214 c63 -118 118 -221
124 -227 5 -8 33 -13 68 -13 l59 0 0 355 0 355 -55 0 -55 0 -2 -232 -3 -233
-124 233 -123 232 -64 0 -64 0 0 -355z"/>
<path d="M917 655 c-50 -17 -71 -37 -99 -93 -20 -41 -23 -62 -23 -167 0 -110
2 -125 26 -170 34 -66 77 -95 143 -95 66 0 107 25 134 82 33 69 32 82 -5 86
-24 2 -33 -1 -38 -17 -3 -12 -18 -35 -32 -51 -36 -43 -81 -42 -122 5 -17 20
-31 39 -31 43 -1 4 -5 26 -9 49 l-8 42 136 3 136 3 -2 67 c-3 155 -97 251
-206 213z m101 -87 c23 -26 42 -69 42 -99 0 -17 -8 -19 -100 -19 -95 0 -100 1
-100 21 0 30 29 87 54 104 31 22 79 19 104 -7z"/>
</g>
</svg>
