<?xml version="1.0" standalone="no"?>
<!DOCTYPE svg PUBLIC "-//W3C//DTD SVG 20010904//EN"
 "http://www.w3.org/TR/2001/REC-SVG-20010904/DTD/svg10.dtd">
<svg version="1.0" xmlns="http://www.w3.org/2000/svg"
 width="80.000000pt" height="60.000000pt" viewBox="0 0 80.000000 60.000000"
 preserveAspectRatio="xMidYMid meet">

<g transform="translate(0.000000,60.000000) scale(0.100000,-0.100000)"
fill="#000000" stroke="none">
<path d="M277 113 c-4 -3 -7 -19 -7 -35 0 -23 4 -28 23 -27 16 1 18 2 5 6 -10
2 -18 9 -18 14 0 5 8 9 18 10 15 0 14 1 -3 8 -19 8 -19 8 0 19 16 9 17 11 4
12 -9 0 -19 -3 -22 -7z"/>
<path d="M477 113 c-8 -8 -9 -63 -2 -63 16 0 47 41 42 54 -7 16 -28 21 -40 9z
m28 -13 c3 -5 -1 -10 -10 -10 -9 0 -13 5 -10 10 3 6 8 10 10 10 2 0 7 -4 10
-10z"/>
<path d="M534 106 c-11 -29 1 -61 24 -64 12 -2 22 1 22 7 0 6 -7 11 -15 11
-21 0 -19 18 3 23 16 4 16 5 0 6 -10 0 -18 5 -18 10 0 5 8 12 18 14 12 4 11 5
-6 6 -12 0 -25 -5 -28 -13z"/>
<path d="M605 112 c-14 -9 -18 -62 -5 -62 6 0 10 5 10 11 0 8 4 8 14 0 12 -10
14 -7 13 20 -2 33 -14 44 -32 31z m25 -12 c0 -5 -4 -10 -10 -10 -5 0 -10 5
-10 10 0 6 5 10 10 10 6 0 10 -4 10 -10z"/>
<path d="M672 108 c-16 -16 -15 -43 2 -57 11 -9 18 -8 30 4 19 19 19 21 6 46
-12 22 -21 24 -38 7z m32 -15 c4 -9 0 -23 -8 -32 -14 -13 -16 -13 -22 2 -7 20
1 47 15 47 5 0 12 -8 15 -17z"/>
<path d="M336 90 c10 -40 22 -46 34 -15 6 15 8 30 5 33 -3 4 -9 -4 -12 -17
l-6 -23 -14 23 -14 24 7 -25z"/>
<path d="M391 79 c-14 -41 -14 -44 4 -29 12 10 18 10 30 0 18 -15 18 -12 4 29
-14 39 -24 39 -38 0z m29 1 c0 -5 -4 -10 -10 -10 -5 0 -10 5 -10 10 0 6 5 10
10 10 6 0 10 -4 10 -10z"/>
<path d="M733 78 c-1 -26 1 -29 7 -13 7 18 8 19 15 3 12 -29 25 -21 24 15 0
26 -2 29 -9 12 -7 -18 -8 -19 -15 -2 -11 27 -22 20 -22 -15z"/>
<path d="M180 86 c0 -2 7 -7 16 -10 8 -3 12 -2 9 4 -6 10 -25 14 -25 6z"/>
</g>
</svg>
